<svg width="1024" height="1024" viewBox="0 0 1024 1024" fill="none" xmlns="http://www.w3.org/2000/svg">
  <defs>
    <linearGradient id="bg" x1="128" y1="96" x2="896" y2="960" gradientUnits="userSpaceOnUse">
      <stop stop-color="#FFF9EC"/>
      <stop offset="0.5" stop-color="#F5E7C5"/>
      <stop offset="1" stop-color="#E8D2A1"/>
    </linearGradient>
    <linearGradient id="goldMain" x1="0" y1="0" x2="82" y2="92" gradientUnits="userSpaceOnUse">
      <stop stop-color="#FFF4C8"/>
      <stop offset="0.22" stop-color="#EDC96A"/>
      <stop offset="0.52" stop-color="#C78E23"/>
      <stop offset="1" stop-color="#7A4708"/>
    </linearGradient>
    <linearGradient id="goldAccent" x1="18" y1="20" x2="66" y2="90" gradientUnits="userSpaceOnUse">
      <stop stop-color="#F5D98A"/>
      <stop offset="0.48" stop-color="#CA932F"/>
      <stop offset="1" stop-color="#83500C"/>
    </linearGradient>
    <linearGradient id="silverAccent" x1="12" y1="72" x2="66" y2="92" gradientUnits="userSpaceOnUse">
      <stop stop-color="#F5F6F9"/>
      <stop offset="0.46" stop-color="#D4D9E0"/>
      <stop offset="1" stop-color="#7E8792"/>
    </linearGradient>
    <filter id="tileShadow" x="104" y="112" width="816" height="816" filterUnits="userSpaceOnUse" color-interpolation-filters="sRGB">
      <feFlood flood-opacity="0" result="BackgroundImageFix"/>
      <feColorMatrix in="SourceAlpha" type="matrix" values="0 0 0 0 0 0 0 0 0 0 0 0 0 0 0 0 0 0 127 0" result="hardAlpha"/>
      <feOffset dy="28"/>
      <feGaussianBlur stdDeviation="32"/>
      <feColorMatrix type="matrix" values="0 0 0 0 0.403922 0 0 0 0 0.243137 0 0 0 0 0.054902 0 0 0 0.18 0"/>
      <feBlend mode="normal" in2="BackgroundImageFix" result="effect1_dropShadow_0_1"/>
      <feBlend mode="normal" in="SourceGraphic" in2="effect1_dropShadow_0_1" result="shape"/>
    </filter>
  </defs>

  <rect width="1024" height="1024" rx="228" fill="url(#bg)"/>

  <g filter="url(#tileShadow)">
    <rect x="168" y="152" width="688" height="688" rx="188" fill="#FFFCF5"/>
    <rect x="168" y="152" width="688" height="688" rx="188" stroke="#E7D0A4" stroke-width="10"/>
  </g>

  <g transform="translate(256 232) scale(6.4)">
    <path d="M14 18H34.5C52.7254 18 67.5 32.7746 67.5 51V96H52.5V56.5C52.5 44.0736 42.4264 34 30 34H14V18Z" fill="url(#goldMain)"/>
    <path d="M73.5 18H53C34.7746 18 20 32.7746 20 51V96H35V56.5C35 44.0736 45.0736 34 57.5 34H73.5V18Z" fill="url(#goldMain)"/>
    <path d="M8 33.5H29C43.3594 33.5 55 45.1406 55 59.5V96H42.5V64.5C42.5 54.835 34.665 47 25 47H8V33.5Z" fill="url(#goldAccent)" opacity="0.92"/>
    <path d="M79 33.5H58C43.6406 33.5 32 45.1406 32 59.5V96H44.5V64.5C44.5 54.835 52.335 47 62 47H79V33.5Z" fill="url(#goldAccent)" opacity="0.92"/>
    <path d="M38.5 18H49V96H38.5V18Z" fill="url(#goldMain)"/>
    <path d="M22 68H64V80H22V68Z" fill="url(#silverAccent)" opacity="0.88"/>
  </g>
</svg>
